static_01
version=1
nRows=13
nColumns=46
inDegrees=yes
endheader
time	ground_force3_vx	ground_force3_vy	ground_force3_vz	ground_force3_px	ground_force3_py	ground_force3_pz	ground_torque3_x	ground_torque3_y	ground_torque3_z	ground_force5_vx	ground_force5_vy	ground_force5_vz	ground_force5_px	ground_force5_py	ground_force5_pz	ground_torque5_x	ground_torque5_y	ground_torque5_z	ground_force4_vx	ground_force4_vy	ground_force4_vz	ground_force4_px	ground_force4_py	ground_force4_pz	ground_torque4_x	ground_torque4_y	ground_torque4_z	ground_force1_vx	ground_force1_vy	ground_force1_vz	ground_force1_px	ground_force1_py	ground_force1_pz	ground_torque1_x	ground_torque1_y	ground_torque1_z	ground_force2_vx	ground_force2_vy	ground_force2_vz	ground_force2_px	ground_force2_py	ground_force2_pz	ground_torque2_x	ground_torque2_y	ground_torque2_z
0.401000	-0.000000	-0.000000	0.000000	0.200000	0.000000	-0.300000	0.000000	0.000000	-0.000000	1.187312	356.098877	21.130714	0.230734	0.000000	-1.320646	0.000040	0.117013	0.000002	-5.058792	312.020752	-19.999344	0.237283	0.000000	-1.047895	0.000027	-0.035209	0.000004	-0.000000	-0.000000	0.000000	0.200000	0.000000	0.904000	0.000000	0.000000	-0.000000	-0.000000	-0.000000	0.000000	0.400000	0.000000	0.302000	0.000000	0.000000	-0.000000	
0.402000	-0.000000	-0.000000	0.000000	0.200000	0.000000	-0.300000	0.000000	0.000000	-0.000000	1.349034	354.828308	21.452459	0.231245	0.000000	-1.321103	0.000001	0.067194	0.000002	-5.218289	310.099365	-20.644539	0.237418	0.000000	-1.049428	0.000018	0.080948	0.000004	-0.000000	-0.000000	0.000000	0.200000	0.000000	0.904000	0.000000	0.000000	-0.000000	-0.000000	-0.000000	0.000000	0.400000	0.000000	0.302000	0.000000	0.000000	-0.000000	
0.403000	-0.000000	-0.000000	0.000000	0.200000	0.000000	-0.300000	0.000000	0.000000	-0.000000	1.027118	356.740295	22.094599	0.230862	0.000000	-1.322098	0.000036	-0.081271	0.000009	-5.379331	311.380615	-20.001385	0.237052	0.000000	-1.048684	0.000032	0.063102	0.000003	-0.000000	-0.000000	0.000000	0.200000	0.000000	0.904000	0.000000	0.000000	-0.000000	-0.000000	-0.000000	0.000000	0.400000	0.000000	0.302000	0.000000	0.000000	-0.000000	
0.404000	-0.000000	-0.000000	0.000000	0.200000	0.000000	-0.300000	0.000000	0.000000	-0.000000	1.510247	355.782959	21.290234	0.231089	0.000000	-1.321476	-0.000005	-0.101331	0.000002	-4.408443	312.656830	-20.001385	0.237487	0.000000	-1.048432	0.000049	-0.070791	0.000004	-0.000000	-0.000000	0.000000	0.200000	0.000000	0.904000	0.000000	0.000000	-0.000000	-0.000000	-0.000000	0.000000	0.400000	0.000000	0.302000	0.000000	0.000000	-0.000000	
0.405000	-0.000000	-0.000000	0.000000	0.200000	0.000000	-0.300000	0.000000	0.000000	-0.000000	0.865906	351.956635	21.291248	0.230943	0.000000	-1.317542	0.000042	-0.032161	0.000001	-5.058792	309.775085	-20.646580	0.237998	0.000000	-1.050217	0.000049	-0.100757	0.000001	-0.000000	-0.000000	0.000000	0.200000	0.000000	0.904000	0.000000	0.000000	-0.000000	-0.000000	-0.000000	0.000000	0.400000	0.000000	0.302000	0.000000	0.000000	-0.000000	
0.406000	-0.000000	-0.000000	0.000000	0.200000	0.000000	-0.300000	0.000000	0.000000	-0.000000	1.671460	354.825653	21.612316	0.231254	0.000000	-1.318612	0.000004	-0.035749	0.000007	-5.379331	313.296600	-19.517742	0.237267	0.000000	-1.048478	0.000027	0.067787	0.000001	-0.000000	-0.000000	0.000000	0.200000	0.000000	0.904000	0.000000	0.000000	-0.000000	-0.000000	-0.000000	0.000000	0.400000	0.000000	0.302000	0.000000	0.000000	-0.000000	
0.407000	-0.000000	-0.000000	0.000000	0.200000	0.000000	-0.300000	0.000000	0.000000	-0.000000	1.509737	356.100189	21.450768	0.230973	0.000000	-1.321835	0.000056	-0.059345	0.000005	-4.733617	311.700500	-20.001385	0.237014	0.000000	-1.048303	0.000024	-0.098291	0.000004	-0.000000	-0.000000	0.000000	0.200000	0.000000	0.904000	0.000000	0.000000	-0.000000	-0.000000	-0.000000	0.000000	0.400000	0.000000	0.302000	0.000000	0.000000	-0.000000	
0.408000	-0.000000	-0.000000	0.000000	0.200000	0.000000	-0.300000	0.000000	0.000000	-0.000000	1.349544	357.373749	21.451782	0.230454	0.000000	-1.320511	0.000052	-0.056453	0.000005	-4.577207	312.978394	-20.645561	0.237327	0.000000	-1.048168	0.000017	-0.318118	0.000002	-0.000000	-0.000000	0.000000	0.200000	0.000000	0.904000	0.000000	0.000000	-0.000000	-0.000000	-0.000000	0.000000	0.400000	0.000000	0.302000	0.000000	0.000000	-0.000000	
0.409000	-0.000000	-0.000000	0.000000	0.200000	0.000000	-0.300000	0.000000	0.000000	-0.000000	1.027118	355.784607	20.487221	0.231219	0.000000	-1.321609	-0.000012	-0.077246	0.000003	-4.736705	311.062073	-20.481964	0.237294	0.000000	-1.048687	0.000028	-0.105505	0.000007	-0.000000	-0.000000	0.000000	0.200000	0.000000	0.904000	0.000000	0.000000	-0.000000	-0.000000	-0.000000	0.000000	0.400000	0.000000	0.302000	0.000000	0.000000	-0.000000	
0.410000	-0.000000	-0.000000	0.000000	0.200000	0.000000	-0.300000	0.000000	0.000000	-0.000000	1.349034	355.147217	22.094599	0.230915	0.000000	-1.319325	0.000002	-0.020250	0.000002	-5.057246	312.981750	-20.643520	0.236617	0.000000	-1.047786	0.000029	0.038760	0.000001	-0.000000	-0.000000	0.000000	0.200000	0.000000	0.904000	0.000000	0.000000	-0.000000	-0.000000	-0.000000	0.000000	0.400000	0.000000	0.302000	0.000000	0.000000	-0.000000	
0.411000	-0.000000	-0.000000	0.000000	0.200000	0.000000	-0.300000	0.000000	0.000000	-0.000000	2.475996	354.508423	21.612654	0.231119	0.000000	-1.320268	0.000022	0.182723	0.000007	-5.222923	312.660858	-20.322453	0.236972	0.000000	-1.047648	0.000014	-0.142839	0.000002	-0.000000	-0.000000	0.000000	0.200000	0.000000	0.904000	0.000000	0.000000	-0.000000	-0.000000	-0.000000	0.000000	0.400000	0.000000	0.302000	0.000000	0.000000	-0.000000	
0.412000	-0.000000	-0.000000	0.000000	0.200000	0.000000	-0.300000	0.000000	0.000000	-0.000000	1.026609	355.147217	21.772854	0.231063	0.000000	-1.319383	0.000023	-0.047251	0.000003	-4.897748	314.259644	-20.160896	0.236941	0.000000	-1.047466	0.000042	-0.113277	0.000003	-0.000000	-0.000000	0.000000	0.200000	0.000000	0.904000	0.000000	0.000000	-0.000000	-0.000000	-0.000000	0.000000	0.400000	0.000000	0.302000	0.000000	0.000000	-0.000000	
0.413000	-0.000000	-0.000000	0.000000	0.200000	0.000000	-0.300000	0.000000	0.000000	-0.000000	1.992867	355.779633	20.969162	0.230752	0.000000	-1.319461	0.000002	0.078408	0.000005	-4.736705	313.621521	-20.322453	0.236753	0.000000	-1.048703	-0.000000	-0.180280	0.000003	-0.000000	-0.000000	0.000000	0.200000	0.000000	0.904000	0.000000	0.000000	-0.000000	-0.000000	-0.000000	0.000000	0.400000	0.000000	0.302000	0.000000	0.000000	-0.000000	
